<?xml version="1.0" encoding="UTF-8"?>
<svg xmlns="http://www.w3.org/2000/svg" xmlns:xlink="http://www.w3.org/1999/xlink" width="2500" height="4000" viewBox="0 0 2500 4000">
<path fill="none" stroke-width="100" stroke-linecap="round" stroke-linejoin="round" stroke="rgb(0%, 0%, 0%)" stroke-opacity="1" stroke-miterlimit="10" d="M 10219.609375 40556.914062 C 10262.695312 40801.09375 10661.71875 40496.40625 10791.015625 40440.898438 C 12396.484375 39752.890625 13229.21875 38996.796875 13893.515625 37305.898438 C 15179.101562 34033.515625 14416.484375 30948.007812 13164.6875 27770.390625 C 11182.695312 22739.21875 9198.085938 15102.695312 14401.601562 11138.085938 C 16603.515625 9460.429688 19514.296875 9951.367188 21489.21875 7410.507812 C 22190 6508.789062 22921.914062 5547.148438 23461.601562 4535.390625 C 24675.390625 2260.117188 27264.609375 -4583.398438 30883.398438 -913.984375 " transform="matrix(0.1, 0, 0, -0.1, 0, 4000)"/>
<path fill="none" stroke-width="100" stroke-linecap="round" stroke-linejoin="round" stroke="rgb(0%, 0%, 0%)" stroke-opacity="1" stroke-miterlimit="10" d="M 14414.21875 39987.304688 C 14287.109375 40180.585938 14601.796875 40026.71875 14669.101562 39972.890625 C 15177.5 39566.210938 15455.585938 38948.710938 15772.304688 38401.601562 C 16319.804688 37456.015625 16378.203125 36326.601562 16441.015625 35258.984375 C 16628.085938 32077.617188 15034.101562 29162.382812 14334.804688 26132.1875 C 13409.6875 22123.59375 11903.984375 15367.5 16340.703125 12859.882812 C 18045.3125 11896.40625 19855.195312 11081.992188 21021.09375 9416.40625 C 23117.617188 6421.484375 23886.796875 1750.625 26671.09375 -679.960938 " transform="matrix(0.1, 0, 0, -0.1, 0, 4000)"/>
<path fill="none" stroke-width="100" stroke-linecap="round" stroke-linejoin="round" stroke="rgb(0%, 0%, 0%)" stroke-opacity="1" stroke-miterlimit="10" d="M 16995.703125 40359.414062 C 17016.601562 40484.492188 17951.914062 40568.398438 18580.585938 37565.78125 C 18680.195312 37090.195312 18700 36612.304688 18680.898438 36128.28125 C 18549.804688 32808.59375 17558.007812 29525.78125 16975.898438 26265.898438 C 16483.515625 23508.789062 16525.390625 20714.492188 17243.28125 18008.28125 C 17884.804688 15590.507812 19536.484375 13843.90625 20586.484375 11656.289062 C 21298.515625 10173.007812 21503.28125 10407.382812 22058.398438 8865.507812 C 22925.507812 6456.875 24231.210938 2330.507812 25458.515625 1251.71875 " transform="matrix(0.1, 0, 0, -0.1, 0, 4000)"/>
<path fill="none" stroke-width="100" stroke-linecap="round" stroke-linejoin="round" stroke="rgb(0%, 0%, 0%)" stroke-opacity="1" stroke-miterlimit="10" d="M 19817.617188 40331.992188 C 19775.390625 40469.609375 19380.195312 40596.015625 19516.71875 40641.484375 C 20463.789062 40957.1875 21737.109375 38303.710938 21935.898438 37574.804688 C 22639.492188 34995.195312 21698.085938 32388.203125 20686.796875 30043.710938 C 19532.304688 27367.382812 18730.3125 24800.78125 18881.484375 21853.007812 C 19015.390625 19241.015625 19639.492188 16489.882812 20720.195312 14096.796875 C 21218.28125 12993.90625 21750.195312 11921.914062 22090.898438 10753.710938 C 22884.101562 8034.296875 23091.015625 5665.273438 24395 2924.296875 C 24911.015625 1839.726562 24549.804688 2366.40625 25093.515625 1198.710938 " transform="matrix(0.1, 0, 0, -0.1, 0, 4000)"/>
<path fill="none" stroke-width="100" stroke-linecap="round" stroke-linejoin="round" stroke="rgb(0%, 0%, 0%)" stroke-opacity="1" stroke-miterlimit="10" d="M 25444.492188 37646.796875 C 25511.992188 37605.390625 25763.789062 36892.109375 25801.796875 36796.914062 C 26929.101562 33978.789062 25027.890625 31321.71875 23795.898438 28906.992188 C 22943.007812 27235.3125 22037.1875 25496.289062 21495.898438 23691.992188 C 20102.109375 19045.78125 21757.109375 14317.304688 22759.609375 9750.703125 C 23333.710938 7135.351562 24145.507812 3627.070312 25093.984375 1097.8125 " transform="matrix(0.1, 0, 0, -0.1, 0, 4000)"/>
<path fill="none" stroke-width="100" stroke-linecap="round" stroke-linejoin="round" stroke="rgb(0%, 0%, 0%)" stroke-opacity="1" stroke-miterlimit="10" d="M 26243.789062 25771.289062 C 25416.914062 25633.398438 25023.007812 25249.101562 24531.40625 24560.898438 C 22216.289062 21319.6875 22626.796875 20419.101562 22426.601562 17652.304688 C 22259.101562 15337.109375 23052.695312 5438.085938 24764.492188 1999.492188 C 24910.78125 1705.703125 25071.914062 1400.507812 25249.21875 1081.445312 " transform="matrix(0.1, 0, 0, -0.1, 0, 4000)"/>
<path fill="none" stroke-width="100" stroke-linecap="round" stroke-linejoin="round" stroke="rgb(0%, 0%, 0%)" stroke-opacity="1" stroke-miterlimit="10" d="M 26492.382812 23043.59375 C 26545.3125 23141.210938 26035.585938 22860.585938 26015 22844.609375 C 25491.40625 22437.382812 25732.695312 21860.703125 25146.210938 21597.890625 C 23745.507812 20970.390625 23554.882812 19490.703125 23373.28125 18071.40625 C 23174.101562 16514.414062 23226.40625 14940.507812 23353.28125 11446.289062 C 23417.617188 9676.328125 23716.992188 5815.234375 24907.890625 1626.445312 " transform="matrix(0.1, 0, 0, -0.1, 0, 4000)"/>
<path fill="none" stroke-width="100" stroke-linecap="round" stroke-linejoin="round" stroke="rgb(0%, 0%, 0%)" stroke-opacity="1" stroke-miterlimit="10" d="M 24770.195312 1554.21875 C 24107.8125 6580.429688 23798.203125 14875 24265.898438 17447.109375 C 24625 19421.914062 25442.5 17573.59375 26894.882812 19025.898438 " transform="matrix(0.1, 0, 0, -0.1, 0, 4000)"/>
<path fill-rule="evenodd" fill="rgb(100%, 100%, 100%)" fill-opacity="1" d="M 2351.199219 3731.367188 C 2350.171875 3730.304688 2349.261719 3729.15625 2348.488281 3727.917969 C 2335.769531 3707.539062 2363.511719 3670.667969 2410.390625 3645.628906 C 2457.269531 3620.589844 2505.660156 3616.804688 2518.378906 3637.183594 C 2520 3639.78125 2520.960938 3642.648438 2521.308594 3645.722656 L 2525.128906 3643.824219 C 2539.71875 3643.824219 2551.96875 3654.640625 2566.390625 3656.546875 C 2587.691406 3659.363281 2617.101562 3665.398438 2634.03125 3678.816406 C 2661.53125 3700.625 2673.890625 3732.613281 2679.878906 3764.703125 C 2690.890625 3823.820312 2670.121094 3992.273438 2590.46875 4014.949219 C 2540.398438 4029.195312 2407.601562 4042.433594 2385.289062 3987.378906 C 2361.410156 3928.476562 2440.648438 3887.425781 2432.28125 3829.386719 C 2429.050781 3806.945312 2371.398438 3760.511719 2351.199219 3731.367188 "/>
<path fill="none" stroke-width="100" stroke-linecap="round" stroke-linejoin="round" stroke="rgb(0%, 0%, 0%)" stroke-opacity="1" stroke-miterlimit="10" d="M 23511.992188 2686.328125 C 23501.71875 2696.953125 23492.617188 2708.4375 23484.882812 2720.820312 C 23357.695312 2924.609375 23635.117188 3293.320312 24103.90625 3543.710938 C 24572.695312 3794.101562 25056.601562 3831.953125 25183.789062 3628.164062 C 25200 3602.1875 25209.609375 3573.515625 25213.085938 3542.773438 L 25251.289062 3561.757812 C 25397.1875 3561.757812 25519.6875 3453.59375 25663.90625 3434.53125 C 25876.914062 3406.367188 26171.015625 3346.015625 26340.3125 3211.835938 C 26615.3125 2993.75 26738.90625 2673.867188 26798.789062 2352.96875 C 26908.90625 1761.796875 26701.210938 77.265625 25904.6875 -149.492188 C 25403.984375 -291.953125 24076.015625 -424.335938 23852.890625 126.210938 C 23614.101562 715.234375 24406.484375 1125.742188 24322.8125 1706.132812 C 24290.507812 1930.546875 23713.984375 2394.882812 23511.992188 2686.328125 Z M 23511.992188 2686.328125 " transform="matrix(0.1, 0, 0, -0.1, 0, 4000)"/>
<path fill="none" stroke-width="100" stroke-linecap="round" stroke-linejoin="round" stroke="rgb(0%, 0%, 0%)" stroke-opacity="1" stroke-miterlimit="10" d="M 23698.28125 3207.226562 C 23746.992188 3089.0625 23746.71875 2966.445312 23821.289062 2849.257812 C 24108.59375 2397.65625 24687.382812 2452.265625 24624.882812 1639.21875 C 24586.015625 1134.453125 23943.203125 519.6875 24430.898438 32.03125 C 24478.90625 -16.015625 24515.390625 -97.304688 24587.890625 -97.304688 " transform="matrix(0.1, 0, 0, -0.1, 0, 4000)"/>
<path fill="none" stroke-width="100" stroke-linecap="round" stroke-linejoin="round" stroke="rgb(0%, 0%, 0%)" stroke-opacity="1" stroke-miterlimit="10" d="M 24085.117188 3526.796875 C 24009.6875 3479.648438 24144.414062 3145.195312 24172.304688 3089.414062 C 24363.515625 2706.953125 24771.40625 2536.757812 24892.695312 2091.835938 C 25019.21875 1628.242188 24545.117188 837.304688 24948.085938 484.648438 C 25013.398438 427.5 25078.28125 355.3125 25169.804688 355.3125 " transform="matrix(0.1, 0, 0, -0.1, 0, 4000)"/>
<path fill="none" stroke-width="100" stroke-linecap="round" stroke-linejoin="round" stroke="rgb(0%, 0%, 0%)" stroke-opacity="1" stroke-miterlimit="10" d="M 24503.59375 3644.765625 C 24502.382812 3644.609375 24577.1875 3580.429688 24597.109375 3560.46875 C 24666.992188 3490.664062 24756.40625 3376.09375 24791.09375 3283.398438 C 24886.992188 3027.773438 24842.5 2433.59375 25253.007812 2433.59375 " transform="matrix(0.1, 0, 0, -0.1, 0, 4000)"/>
<path fill-rule="nonzero" fill="rgb(0%, 0%, 0%)" fill-opacity="1" d="M 158.035156 3778.683594 L 187.917969 3635.519531 L 216.042969 3635.519531 L 205.984375 3683.371094 C 211.128906 3679.464844 215.929688 3676.683594 220.390625 3675.019531 C 224.847656 3673.359375 229.714844 3672.53125 234.988281 3672.53125 C 245.925781 3672.53125 254.683594 3676.191406 261.257812 3683.515625 C 267.832031 3690.84375 271.121094 3701.503906 271.121094 3715.5 C 271.121094 3724.941406 269.574219 3734.101562 266.480469 3742.988281 C 263.390625 3751.878906 259.257812 3759.101562 254.078125 3764.671875 C 248.902344 3770.234375 243.46875 3774.371094 237.769531 3777.070312 C 232.074219 3779.773438 226.101562 3781.125 219.851562 3781.125 C 205.007812 3781.125 194.101562 3774.613281 187.136719 3761.59375 L 183.523438 3778.683594 Z M 195.828125 3736.398438 C 195.828125 3743.363281 197.796875 3749.027344 201.734375 3753.390625 C 205.675781 3757.753906 210.3125 3759.933594 215.652344 3759.933594 C 220.339844 3759.933594 224.816406 3758.242188 229.078125 3754.855469 C 233.34375 3751.46875 236.894531 3746.066406 239.726562 3738.644531 C 242.558594 3731.222656 243.972656 3723.734375 243.972656 3716.183594 C 243.972656 3708.828125 242.066406 3703.050781 238.261719 3698.847656 C 234.449219 3694.648438 229.84375 3692.550781 224.441406 3692.550781 C 217.410156 3692.550781 211.355469 3695.804688 206.277344 3702.316406 C 199.3125 3711.234375 195.828125 3722.597656 195.828125 3736.398438 "/>
<path fill-rule="nonzero" fill="rgb(0%, 0%, 0%)" fill-opacity="1" d="M 308.644531 3722.945312 L 288.136719 3721.1875 C 290.480469 3714.253906 294.570312 3708.835938 300.40625 3704.929688 C 306.242188 3701.023438 313.96875 3699.070312 323.585938 3699.070312 C 333.597656 3699.070312 340.992188 3701.082031 345.777344 3705.113281 C 350.5625 3709.140625 352.957031 3714.058594 352.957031 3719.871094 C 352.957031 3722.214844 352.75 3724.703125 352.335938 3727.339844 C 351.917969 3729.976562 350.46875 3736.910156 347.976562 3748.140625 C 345.925781 3757.417969 344.898438 3763.914062 344.898438 3767.625 C 344.898438 3770.945312 345.484375 3774.632812 346.65625 3778.683594 L 326.222656 3778.683594 C 325.394531 3775.851562 324.882812 3772.921875 324.6875 3769.894531 C 321.609375 3773.3125 318.070312 3775.9375 314.066406 3777.769531 C 310.0625 3779.597656 306.03125 3780.515625 301.980469 3780.515625 C 295.535156 3780.515625 290.214844 3778.402344 286.015625 3774.179688 C 281.8125 3769.953125 279.714844 3764.523438 279.714844 3757.882812 C 279.714844 3750.460938 282.023438 3744.527344 286.636719 3740.085938 C 291.25 3735.640625 299.488281 3732.957031 311.355469 3732.027344 C 321.363281 3731.199219 328.054688 3730.195312 331.425781 3729.023438 C 332.304688 3726.097656 332.742188 3723.753906 332.742188 3721.992188 C 332.742188 3719.746094 331.839844 3717.867188 330.03125 3716.355469 C 328.226562 3714.839844 325.539062 3714.085938 321.976562 3714.085938 C 318.214844 3714.085938 315.25 3714.851562 313.078125 3716.390625 C 310.902344 3717.929688 309.425781 3720.113281 308.644531 3722.945312 Z M 328.640625 3742.429688 C 327.371094 3742.769531 325.6875 3743.089844 323.585938 3743.382812 C 313.039062 3744.648438 306.15625 3746.507812 302.933594 3748.945312 C 300.636719 3750.703125 299.488281 3753.074219 299.488281 3756.050781 C 299.488281 3758.492188 300.367188 3760.554688 302.128906 3762.242188 C 303.886719 3763.925781 306.203125 3764.765625 309.085938 3764.765625 C 312.257812 3764.765625 315.25 3763.996094 318.058594 3762.460938 C 320.863281 3760.921875 322.964844 3758.945312 324.355469 3756.527344 C 325.746094 3754.109375 326.980469 3750.339844 328.054688 3745.210938 L 328.640625 3742.429688 "/>
<path fill-rule="nonzero" fill="rgb(0%, 0%, 0%)" fill-opacity="1" d="M 415.140625 3749.386719 L 435.574219 3752.683594 C 432.203125 3761.765625 427.226562 3768.675781 420.632812 3773.410156 C 414.039062 3778.144531 406.398438 3780.515625 397.707031 3780.515625 C 387.796875 3780.515625 379.933594 3777.558594 374.125 3771.652344 C 368.3125 3765.742188 365.40625 3757.613281 365.40625 3747.261719 C 365.40625 3738.816406 367.164062 3730.832031 370.683594 3723.3125 C 374.195312 3715.792969 379.496094 3709.871094 386.574219 3705.550781 C 393.65625 3701.230469 401.417969 3699.070312 409.867188 3699.070312 C 419.046875 3699.070312 426.371094 3701.460938 431.839844 3706.246094 C 437.308594 3711.03125 440.382812 3717.332031 441.066406 3725.144531 L 421.070312 3727.265625 C 420.585938 3722.921875 419.253906 3719.722656 417.082031 3717.671875 C 414.90625 3715.621094 412.0625 3714.597656 408.546875 3714.597656 C 404.496094 3714.597656 400.710938 3716.109375 397.195312 3719.136719 C 393.679688 3722.164062 390.980469 3726.695312 389.101562 3732.722656 C 387.222656 3738.753906 386.28125 3744.40625 386.28125 3749.679688 C 386.28125 3754.269531 387.40625 3757.808594 389.652344 3760.300781 C 391.898438 3762.789062 394.703125 3764.035156 398.074219 3764.035156 C 401.441406 3764.035156 404.691406 3762.8125 407.816406 3760.371094 C 410.941406 3757.933594 413.382812 3754.269531 415.140625 3749.386719 "/>
<path fill-rule="nonzero" fill="rgb(0%, 0%, 0%)" fill-opacity="1" d="M 445.460938 3778.683594 L 467.945312 3671.308594 L 488.96875 3671.308594 L 477.25 3727.195312 L 504.640625 3700.898438 L 531.960938 3700.898438 L 500.6875 3729.171875 L 517.3125 3778.683594 L 496.292969 3778.683594 L 485.597656 3742.722656 L 471.390625 3755.320312 L 466.480469 3778.683594 L 445.460938 3778.683594 "/>
<path fill-rule="nonzero" fill="rgb(0%, 0%, 0%)" fill-opacity="1" d="M 528.152344 3782.785156 L 550.34375 3786.007812 C 550.34375 3788.253906 550.710938 3789.949219 551.441406 3791.097656 C 552.175781 3792.246094 553.359375 3793.222656 554.996094 3794.027344 C 556.632812 3794.832031 558.863281 3795.234375 561.695312 3795.234375 C 566.140625 3795.234375 569.703125 3794.355469 572.390625 3792.597656 C 574.394531 3791.230469 576.027344 3789.035156 577.296875 3786.007812 C 578.078125 3784.101562 579.078125 3779.953125 580.300781 3773.558594 L 581.03125 3769.894531 C 573.757812 3775.949219 566.238281 3778.976562 558.476562 3778.976562 C 550.855469 3778.976562 544.605469 3776.289062 539.726562 3770.921875 C 534.84375 3765.550781 532.398438 3757.6875 532.398438 3747.335938 C 532.398438 3738.203125 534.0625 3729.832031 537.382812 3722.214844 C 540.699219 3714.597656 545.363281 3708.835938 551.371094 3704.929688 C 557.375 3701.023438 563.503906 3699.070312 569.753906 3699.070312 C 574.929688 3699.070312 579.664062 3700.4375 583.964844 3703.171875 C 588.261719 3705.90625 591.605469 3709.738281 593.996094 3714.671875 L 596.925781 3700.898438 L 616.628906 3700.898438 L 603.152344 3765.71875 C 600.953125 3776.121094 599.101562 3783.542969 597.585938 3787.984375 C 596.070312 3792.429688 594.339844 3795.96875 592.386719 3798.605469 C 590.433594 3801.242188 587.96875 3803.453125 584.988281 3805.234375 C 582.011719 3807.015625 578.492188 3808.296875 574.441406 3809.078125 C 570.390625 3809.859375 565.992188 3810.25 561.257812 3810.25 C 550.269531 3810.25 541.972656 3808.371094 536.355469 3804.609375 C 530.738281 3800.851562 527.933594 3794.601562 527.933594 3785.859375 C 527.933594 3784.933594 528.007812 3783.90625 528.152344 3782.785156 Z M 552.90625 3745.210938 C 552.90625 3751.121094 554.238281 3755.625 556.898438 3758.726562 C 559.5625 3761.824219 562.894531 3763.375 566.898438 3763.375 C 570.558594 3763.375 574.113281 3761.984375 577.554688 3759.199219 C 580.996094 3756.417969 583.632812 3752.464844 585.464844 3747.335938 C 587.296875 3742.210938 588.210938 3737.253906 588.210938 3732.46875 C 588.210938 3726.949219 586.722656 3722.507812 583.742188 3719.136719 C 580.765625 3715.769531 577.320312 3714.085938 573.414062 3714.085938 C 569.65625 3714.085938 566.203125 3715.574219 563.050781 3718.550781 C 559.902344 3721.53125 557.304688 3726.121094 555.253906 3732.320312 C 553.6875 3737.105469 552.90625 3741.402344 552.90625 3745.210938 "/>
<path fill-rule="nonzero" fill="rgb(0%, 0%, 0%)" fill-opacity="1" d="M 635.964844 3700.898438 L 655.59375 3700.898438 L 652.445312 3715.988281 C 659.769531 3704.710938 667.703125 3699.070312 676.246094 3699.070312 C 679.273438 3699.070312 682.523438 3699.824219 685.988281 3701.339844 L 677.933594 3718.550781 C 676.027344 3717.867188 674.003906 3717.527344 671.855469 3717.527344 C 668.238281 3717.527344 664.566406 3718.894531 660.832031 3721.628906 C 657.09375 3724.363281 654.179688 3728.011719 652.078125 3732.578125 C 649.980469 3737.144531 647.902344 3744.382812 645.851562 3754.292969 L 640.726562 3778.683594 L 619.703125 3778.683594 L 635.964844 3700.898438 "/>
<path fill-rule="nonzero" fill="rgb(0%, 0%, 0%)" fill-opacity="1" d="M 682.328125 3746.382812 C 682.328125 3731.980469 686.390625 3720.492188 694.523438 3711.921875 C 702.652344 3703.355469 713.332031 3699.070312 726.566406 3699.070312 C 738.039062 3699.070312 747 3702.230469 753.445312 3708.554688 C 759.890625 3714.878906 763.113281 3723.386719 763.113281 3734.078125 C 763.113281 3746.675781 759.085938 3757.566406 751.027344 3766.746094 C 742.972656 3775.925781 732.179688 3780.515625 718.65625 3780.515625 C 711.332031 3780.515625 704.835938 3779.050781 699.171875 3776.121094 C 693.507812 3773.191406 689.285156 3769.039062 686.503906 3763.667969 C 683.71875 3758.296875 682.328125 3752.535156 682.328125 3746.382812 Z M 742.238281 3731.367188 C 742.238281 3726.390625 740.785156 3722.398438 737.882812 3719.394531 C 734.976562 3716.390625 731.230469 3714.890625 726.640625 3714.890625 C 722.097656 3714.890625 718.070312 3716.292969 714.554688 3719.101562 C 711.039062 3721.910156 708.304688 3725.984375 706.351562 3731.332031 C 704.398438 3736.679688 703.421875 3741.597656 703.421875 3746.089844 C 703.421875 3751.65625 704.933594 3756.074219 707.960938 3759.347656 C 710.988281 3762.617188 714.796875 3764.253906 719.386719 3764.253906 C 725.148438 3764.253906 729.984375 3761.789062 733.890625 3756.855469 C 739.457031 3749.875 742.238281 3741.378906 742.238281 3731.367188 "/>
<path fill-rule="nonzero" fill="rgb(0%, 0%, 0%)" fill-opacity="1" d="M 786.988281 3700.898438 L 808.011719 3700.898438 L 798.414062 3746.96875 C 797.242188 3752.488281 796.65625 3755.929688 796.65625 3757.296875 C 796.65625 3759.542969 797.488281 3761.472656 799.148438 3763.082031 C 800.808594 3764.695312 802.933594 3765.5 805.519531 3765.5 C 807.375 3765.5 809.207031 3765.144531 811.015625 3764.4375 C 812.820312 3763.730469 814.675781 3762.65625 816.578125 3761.214844 C 818.484375 3759.773438 820.191406 3758.128906 821.707031 3756.269531 C 823.222656 3754.414062 824.636719 3751.972656 825.953125 3748.945312 C 826.882812 3746.699219 827.882812 3743.039062 828.957031 3737.960938 L 836.722656 3700.898438 L 857.742188 3700.898438 L 841.480469 3778.683594 L 821.855469 3778.683594 L 824.050781 3768.136719 C 815.457031 3776.390625 806.105469 3780.515625 796 3780.515625 C 789.601562 3780.515625 784.574219 3778.683594 780.910156 3775.019531 C 777.25 3771.359375 775.417969 3766.453125 775.417969 3760.300781 C 775.417969 3757.613281 776.246094 3752.265625 777.90625 3744.261719 L 786.988281 3700.898438 "/>
<path fill-rule="nonzero" fill="rgb(0%, 0%, 0%)" fill-opacity="1" d="M 879.054688 3700.898438 L 898.976562 3700.898438 L 896.925781 3711.007812 C 901.90625 3706.710938 906.558594 3703.648438 910.878906 3701.816406 C 915.199219 3699.984375 919.753906 3699.070312 924.539062 3699.070312 C 930.9375 3699.070312 935.976562 3700.898438 939.664062 3704.5625 C 943.351562 3708.222656 945.191406 3713.082031 945.191406 3719.136719 C 945.191406 3721.871094 944.386719 3727.046875 942.777344 3734.664062 L 933.621094 3778.683594 L 912.601562 3778.683594 L 921.828125 3734.519531 C 923.195312 3727.925781 923.878906 3723.996094 923.878906 3722.726562 C 923.878906 3720.039062 923.085938 3717.929688 921.5 3716.390625 C 919.914062 3714.851562 917.703125 3714.085938 914.871094 3714.085938 C 911.796875 3714.085938 908.378906 3715.378906 904.617188 3717.964844 C 900.855469 3720.554688 897.902344 3723.972656 895.753906 3728.21875 C 894.191406 3731.246094 892.433594 3737.425781 890.480469 3746.75 L 883.816406 3778.683594 L 862.796875 3778.683594 L 879.054688 3700.898438 "/>
<path fill-rule="nonzero" fill="rgb(0%, 0%, 0%)" fill-opacity="1" d="M 1025.980469 3778.683594 L 1006.058594 3778.683594 L 1007.820312 3770.261719 C 1004.011719 3773.921875 1000.261719 3776.546875 996.574219 3778.132812 C 992.886719 3779.722656 988.722656 3780.515625 984.085938 3780.515625 C 976.027344 3780.515625 969.496094 3777.769531 964.492188 3772.273438 C 959.488281 3766.78125 956.984375 3758.664062 956.984375 3747.921875 C 956.984375 3735.472656 960.5 3724.214844 967.53125 3714.15625 C 974.5625 3704.097656 983.863281 3699.070312 995.4375 3699.070312 C 1005.890625 3699.070312 1013.71875 3703.21875 1018.949219 3711.519531 L 1027.371094 3671.308594 L 1048.390625 3671.308594 Z M 977.421875 3747.042969 C 977.421875 3752.609375 978.824219 3756.953125 981.632812 3760.078125 C 984.4375 3763.203125 987.894531 3764.765625 991.996094 3764.765625 C 995.804688 3764.765625 999.355469 3763.460938 1002.648438 3760.847656 C 1005.949219 3758.238281 1008.578125 3754.246094 1010.558594 3748.875 C 1012.539062 3743.503906 1013.53125 3738.351562 1013.53125 3733.421875 C 1013.53125 3727.804688 1012.019531 3723.265625 1008.988281 3719.796875 C 1005.960938 3716.328125 1002.46875 3714.597656 998.515625 3714.597656 C 992.359375 3714.597656 987.308594 3718.015625 983.351562 3724.851562 C 979.398438 3731.6875 977.421875 3739.085938 977.421875 3747.042969 "/>
<path fill="none" stroke-width="100" stroke-linecap="round" stroke-linejoin="round" stroke="rgb(0%, 0%, 0%)" stroke-opacity="1" stroke-miterlimit="10" d="M -271.953125 1166.601562 L 5423.554688 1166.601562 " transform="matrix(0.1, 0, 0, -0.1, 0, 4000)"/>
</svg>
