<?xml version="1.0" encoding="UTF-8"?>
<svg xmlns="http://www.w3.org/2000/svg" xmlns:xlink="http://www.w3.org/1999/xlink" width="300" height="300" viewBox="0 0 3644 3644">
<path fill-rule="nonzero" fill="rgb(82.226562%, 41.308594%, 0%)" fill-opacity="1" d="M 1822.371094 3643.640625 C 816.417969 3643.640625 0.929688 2828.152344 0.929688 1822.199219 C 0.929688 816.238281 816.417969 0.75 1822.371094 0.75 C 2828.328125 0.75 3643.820312 816.238281 3643.820312 1822.199219 C 3643.820312 2828.152344 2828.328125 3643.640625 1822.371094 3643.640625 M 1822.371094 3633.464844 C 2822.710938 3633.464844 3633.640625 2822.53125 3633.640625 1822.199219 C 3633.640625 821.859375 2822.710938 10.929688 1822.371094 10.929688 C 822.039062 10.929688 11.105469 821.859375 11.105469 1822.199219 C 11.105469 2822.53125 822.039062 3633.464844 1822.371094 3633.464844 "/>
<path fill-rule="nonzero" fill="rgb(82.226562%, 41.308594%, 0%)" fill-opacity="1" d="M 1822.371094 3643.640625 C 1481.898438 3643.640625 1211.828125 2822.847656 1211.828125 1822.199219 C 1211.828125 821.550781 1481.898438 0.75 1822.371094 0.75 C 2162.839844 0.75 2432.910156 821.550781 2432.910156 1822.199219 C 2432.910156 2822.847656 2162.839844 3643.640625 1822.371094 3643.640625 M 1822.371094 3633.464844 C 2150.660156 3633.464844 2422.738281 2827.835938 2422.738281 1822.199219 C 2422.738281 816.558594 2150.660156 10.929688 1822.371094 10.929688 C 1494.078125 10.929688 1222.011719 816.558594 1222.011719 1822.199219 C 1222.011719 2827.835938 1494.078125 3633.464844 1822.371094 3633.464844 "/>
<path fill-rule="nonzero" fill="rgb(82.226562%, 41.308594%, 0%)" fill-opacity="1" d="M 1801.730469 2192.679688 C 1229.949219 2192.679688 766.921875 1701.71875 766.921875 1096.71875 C 766.921875 491.710938 1229.949219 0.75 1801.730469 0.75 C 2373.519531 0.75 2836.550781 491.710938 2836.550781 1096.71875 C 2836.550781 1701.71875 2373.519531 2192.679688 1801.730469 2192.679688 M 1801.730469 2182.5 C 2367.351562 2182.5 2826.371094 1696.660156 2826.371094 1096.71875 C 2826.371094 496.769531 2367.351562 10.929688 1801.730469 10.929688 C 1236.121094 10.929688 777.097656 496.769531 777.097656 1096.71875 C 777.097656 1696.660156 1236.121094 2182.5 1801.730469 2182.5 "/>
<path fill-rule="nonzero" fill="rgb(82.226562%, 41.308594%, 0%)" fill-opacity="1" d="M 1822.371094 3038.191406 C 1149.800781 3038.191406 606.382812 2357.121094 606.382812 1519.46875 C 606.382812 681.828125 1149.800781 0.75 1822.371094 0.75 C 2494.949219 0.75 3038.359375 681.828125 3038.359375 1519.46875 C 3038.359375 2357.121094 2494.949219 3038.191406 1822.371094 3038.191406 M 1822.371094 3028.011719 C 2487.320312 3028.011719 3028.191406 2353.730469 3028.191406 1519.46875 C 3028.191406 685.210938 2487.320312 10.929688 1822.371094 10.929688 C 1157.421875 10.929688 616.558594 685.210938 616.558594 1519.46875 C 616.558594 2353.730469 1157.421875 3028.011719 1822.371094 3028.011719 "/>
<path fill-rule="nonzero" fill="rgb(82.226562%, 41.308594%, 0%)" fill-opacity="1" d="M 1822.371094 3441.824219 C 1038.460938 3441.824219 404.5625 2670.546875 404.5625 1721.289062 C 404.5625 772.03125 1038.460938 0.75 1822.371094 0.75 C 2606.289062 0.75 3240.179688 772.03125 3240.179688 1721.289062 C 3240.179688 2670.546875 2606.289062 3441.824219 1822.371094 3441.824219 M 1822.371094 3431.648438 C 2598.910156 3431.648438 3230 2666.863281 3230 1721.289062 C 3230 775.71875 2598.910156 10.929688 1822.371094 10.929688 C 1045.839844 10.929688 414.742188 775.71875 414.742188 1721.289062 C 414.742188 2666.863281 1045.839844 3431.648438 1822.371094 3431.648438 "/>
</svg>
